<svg width="20" height="20" viewBox="0 0 28 28" fill="none" xmlns="http://www.w3.org/2000/svg">
                        <path d="M13.9997 2.33325C7.55967 2.33325 2.33301 7.55992 2.33301 13.9999C2.33301 20.4399 7.55967 25.6666 13.9997 25.6666C20.4397 25.6666 25.6663 20.4399 25.6663 13.9999C25.6663 7.55992 20.4397 2.33325 13.9997 2.33325ZM18.118 14.0349C17.943 14.2099 17.7213 14.2916 17.4997 14.2916C17.278 14.2916 17.0563 14.2099 16.8813 14.0349L14.8747 12.0283V18.0833C14.8747 18.5616 14.478 18.9583 13.9997 18.9583C13.5213 18.9583 13.1247 18.5616 13.1247 18.0833V12.0283L11.118 14.0349C10.7797 14.3733 10.2197 14.3733 9.88134 14.0349C9.54301 13.6966 9.54301 13.1366 9.88134 12.7983L13.3813 9.29825C13.7197 8.95992 14.2797 8.95992 14.618 9.29825L18.118 12.7983C18.4563 13.1366 18.4563 13.6966 18.118 14.0349Z" fill="#14C784" />
                    </svg>