<svg width="20" height="20" viewBox="0 0 20 20" fill="none" xmlns="http://www.w3.org/2000/svg">
<path d="M10.002 20C4.48195 20 0.00195312 15.52 0.00195312 10C0.00195312 4.48 4.48195 0 10.002 0C15.522 0 20.002 4.48 20.002 10C20.002 15.52 15.522 20 10.002 20ZM13.532 9.97C13.382 9.82 13.192 9.75 13.002 9.75C12.812 9.75 12.622 9.82 12.472 9.97L10.752 11.69V6.5C10.752 6.09 10.412 5.75 10.002 5.75C9.59195 5.75 9.25195 6.09 9.25195 6.5V11.69L7.53195 9.97C7.24195 9.68 6.76195 9.68 6.47195 9.97C6.18195 10.26 6.18195 10.74 6.47195 11.03L9.47195 14.03C9.76195 14.32 10.242 14.32 10.532 14.03L13.532 11.03C13.822 10.74 13.822 10.26 13.532 9.97Z" fill="#CE0000"/>
</svg>