<svg width="30" height="30" viewBox="0 0 30 30" fill="none" xmlns="http://www.w3.org/2000/svg">
<path d="M21.285 0H8.715C3.255 0 0 3.255 0 8.715V21.27C0 26.745 3.255 30 8.715 30H21.27C26.73 30 29.985 26.745 29.985 21.285V8.715C30 3.255 26.745 0 21.285 0ZM21 16.125H16.125V21C16.125 21.615 15.615 22.125 15 22.125C14.385 22.125 13.875 21.615 13.875 21V16.125H9C8.385 16.125 7.875 15.615 7.875 15C7.875 14.385 8.385 13.875 9 13.875H13.875V9C13.875 8.385 14.385 7.875 15 7.875C15.615 7.875 16.125 8.385 16.125 9V13.875H21C21.615 13.875 22.125 14.385 22.125 15C22.125 15.615 21.615 16.125 21 16.125Z" fill="#FCFCFC"/>
</svg>
