<svg width="24" height="24" viewBox="0 0 24 24" fill="none" xmlns="http://www.w3.org/2000/svg">
<path d="M5.29998 14.46C5.64998 14.81 5.84998 15.51 5.73998 16L5.21998 18.25C5.17998 18.45 4.9071 20.5603 5.04998 20.95C5.15998 21.25 5.32998 21.48 5.55998 21.65C6.16998 22.1 7.11998 21.99 8.22998 21.34L11.16 19.6C11.62 19.33 12.38 19.33 12.84 19.6L15.77 21.34C16.43 21.73 17.03 21.92 17.54 21.92C17.89 21.92 18.19 21.83 18.44 21.65C19.06 21.2 19.24 20.26 18.95 19.01L18.26 16C18.14 15.51 18.34 14.82 18.7 14.46L21.12 12.03C21.88 11.27 22.18 10.46 21.96 9.76C21.73 9.06 21.02 8.58 19.96 8.4L18.95 8.23C18.32 8.12 16.62 7.84 16.33 7.67C16.04 7.5 15.77 7.25 15.64 6.99L13.92 3.54C13.42 2.55 12.74 2 12 2C11.26 2 10.58 2.55 10.08 3.54L8.35998 6.99C8.14998 7.4 7.59998 7.8 7.14998 7.88L4.02998 8.4C2.96998 8.58 2.25998 9.06 2.02998 9.76C1.80998 10.46 2.10998 11.27 2.86998 12.03L5.29998 14.46Z" fill="white"/>
</svg>
